<svg width="51" height="38" viewBox="0 0 51 38" fill="none" xmlns="http://www.w3.org/2000/svg">
<path d="M48.2563 0L32.1344 4.43232L37.9203 7.10293C27.5844 16.6322 12.6328 22.502 0 24.7361L3.57875 29.5088C17.7734 26.1215 32.8016 20.0115 42.4813 9.21699L46.8891 11.251L48.2563 0ZM49.0984 9.34512L48.5734 13.7334L42.9625 11.1389C42.7656 11.3551 42.5578 11.5633 42.35 11.7795V37.3725H50.8813V9.34512H49.0984ZM32.6266 19.5951C31.2375 20.476 29.8047 21.3088 28.35 22.0936V37.3725H36.8813V19.5951H32.6266ZM19.0969 26.3217C17.5219 26.9303 15.9469 27.4908 14.35 28.0193V37.3725H22.8813V26.3217H19.0969ZM0.35 29.8451V37.3725H8.88125V29.8451H8.26C6.63906 30.2855 5.01922 30.6939 3.40922 31.0703L2.63703 31.2465L1.58703 29.8451H0.35Z" fill="black"/>
</svg>
